<svg width="100%" height="100%" viewBox="0 0 185 50" fill="none" xmlns="http://www.w3.org/2000/svg">
<rect width="50" height="50" rx="25" fill="#FFD166"/>
<path d="M19.9456 35.2815C19.0048 34.3791 18.5344 33.0255 18.5344 31.2207C18.5344 29.2047 19.1968 27.1215 20.5216 24.9711C21.2512 23.7807 22.24 22.8015 23.488 22.0335C24.736 21.2655 26.0991 20.8815 27.5776 20.8815C28.2304 20.8815 28.9312 20.9967 29.68 21.2271C31.1392 18.8271 32.3295 17.0895 33.2512 16.0143C34.1728 14.9391 34.9696 14.1231 35.6416 13.5663C37.1583 12.3375 38.6944 11.7231 40.2495 11.7231C40.5568 11.7231 40.7104 11.8767 40.7104 12.1839C39.4431 14.9679 38.464 17.7807 37.7728 20.6223C37.1007 23.4447 36.5728 26.1999 36.1887 28.8879C35.8239 31.5567 35.6416 33.8223 35.6416 35.6847C35.6416 35.9535 35.5072 36.0879 35.2383 36.0879C34.5663 36.0879 34.2304 35.3199 34.2304 33.7839C34.2304 31.8447 34.048 30.0879 33.6831 28.5135C33.0112 25.5183 31.84 23.5407 30.1695 22.5807C29.9584 22.9839 29.5552 23.7519 28.96 24.8847C28.3839 26.0175 27.952 26.8527 27.6639 27.3903C27.3951 27.9087 26.9824 28.6479 26.4256 29.6079C25.888 30.5487 25.4272 31.3071 25.0431 31.8831C24.1215 33.2655 23.1231 34.4751 22.0479 35.5119C22.24 35.5695 22.4704 35.5983 22.7392 35.5983C24.3519 35.5983 25.6863 35.0703 26.7423 34.0143C27.7984 32.9391 28.528 31.6719 28.9312 30.2127C28.9888 30.0015 29.1424 29.9055 29.392 29.9247C29.5456 29.9439 29.6031 30.0207 29.5648 30.1551C29.1424 31.8063 28.3359 33.2559 27.1455 34.5039C25.9743 35.7327 24.496 36.3471 22.7104 36.3471C22.3071 36.3471 21.856 36.2799 21.3568 36.1455C19.5904 37.5663 17.7088 38.2767 15.712 38.2767C13.12 38.2767 11.2768 37.2591 10.1824 35.2239C9.58715 34.1295 9.28955 32.9487 9.28955 31.6815C9.28955 31.0095 9.37595 30.3087 9.54875 29.5791C10.0096 27.6015 10.9504 26.1903 12.3712 25.3455C13.0816 24.9231 13.8592 24.7119 14.704 24.7119C14.9728 24.7119 15.1936 24.7983 15.3664 24.9711C15.5392 25.1247 15.664 25.3743 15.7408 25.7199C14.608 25.7199 13.5904 26.1231 12.688 26.9295C11.1712 28.2543 10.4128 30.1359 10.4128 32.5743C10.4128 34.0527 10.8544 35.2047 11.7376 36.0303C12.64 36.8751 13.84 37.2975 15.3376 37.2975C16.8544 37.2975 18.3904 36.6255 19.9456 35.2815ZM27.5488 21.9183C25.936 21.9183 24.4864 22.4463 23.2 23.5023C21.9136 24.5583 20.9728 25.7967 20.3776 27.2175C19.7824 28.6191 19.4848 30.0399 19.4848 31.4799C19.4848 32.9199 19.8496 34.0143 20.5792 34.7631C21.3088 34.0719 22.0864 33.1695 22.912 32.0559C23.7376 30.9231 24.3904 29.9727 24.8704 29.2047C25.3503 28.4367 26.0992 27.1887 27.1168 25.4607C28.1343 23.7327 28.7967 22.6191 29.1039 22.1199C28.6432 21.9855 28.1248 21.9183 27.5488 21.9183ZM38.7519 12.8463C37.216 13.2495 35.8144 14.1999 34.5471 15.6975C33.2799 17.1951 31.9839 19.1823 30.6591 21.6591C32.5215 22.6767 33.8272 24.7119 34.576 27.7647C34.9216 24.5007 35.4783 21.5055 36.2463 18.7791C37.0336 16.0335 37.8687 14.0559 38.7519 12.8463Z" fill="#222831" stroke="#222831"/>
<path d="M109.934 13.625V36.375H106.013V13.625H109.934Z" fill="white"/>
<path fill-rule="evenodd" clip-rule="evenodd" d="M73.1875 13.625H74.125L82.7188 36.375H78.5938L76.753 31.0469H78.2656V27.9375H75.6787L72.3444 18.2863L69.0177 27.9375H75.6787L76.753 31.0469H67.9459L66.1094 36.375H62L70.5625 13.625H71.4844H73.1875Z" fill="white"/>
<path d="M78.2656 31.0469V27.9375H75.6787L76.753 31.0469H78.2656Z" fill="white"/>
<path fill-rule="evenodd" clip-rule="evenodd" d="M101.116 33.2656V36.375H90.7875V33.2656H101.116Z" fill="white"/>
<path d="M89.6938 36.375H90.7875V33.2656H89.6938V36.375Z" fill="white"/>
<path d="M89.6938 36.375V33.2656H90.7875V13.625H86.8656V36.375H89.6938Z" fill="white"/>
<path fill-rule="evenodd" clip-rule="evenodd" d="M128.3 36.375H130.988C132.55 36.375 133.961 36.125 135.222 35.625C136.493 35.1146 137.586 34.3906 138.503 33.4531C139.42 32.5052 140.123 31.3698 140.613 30.0469C141.102 28.724 141.347 27.2448 141.347 25.6094V24.4062C141.347 22.7708 141.102 21.2917 140.613 19.9688C140.123 18.6458 139.42 17.5104 138.503 16.5625C137.597 15.6146 136.519 14.8906 135.269 14.3906C134.019 13.8802 132.639 13.625 131.128 13.625H128.3V16.75H126.034V13.625H124.378V36.375H126.128H128.3ZM128.3 33.2656V16.75H131.128C132.139 16.75 133.029 16.9167 133.8 17.25C134.581 17.5833 135.238 18.0729 135.769 18.7188C136.31 19.3646 136.717 20.1615 136.988 21.1094C137.269 22.0573 137.409 23.1458 137.409 24.375V25.6094C137.409 27.1927 137.165 28.5573 136.675 29.7031C136.196 30.849 135.477 31.7292 134.519 32.3438C133.571 32.9583 132.394 33.2656 130.988 33.2656H128.3Z" fill="white"/>
<path d="M126.034 13.625V16.75H128.3V13.625H126.034Z" fill="white"/>
<path fill-rule="evenodd" clip-rule="evenodd" d="M161.775 36.375V33.2656H150.806V26.1875H160.197V23.125H150.806V16.75H161.697V13.625H150.806H149.697H146.884V36.375H149.697V33.2656H150.806V36.375H161.775Z" fill="white"/>
<path d="M149.697 36.375H150.806V33.2656H149.697V36.375Z" fill="white"/>
<path fill-rule="evenodd" clip-rule="evenodd" d="M174.579 31.5851L174.375 32.2188L173.609 36.375H172.656L164.531 13.625H168.844L174.579 31.5851ZM175.594 36.375L174.781 32.2188L174.579 31.5851L180.359 13.625H184.688L176.531 36.375H175.594Z" fill="white"/>
<path d="M173.609 36.375H175.594L174.781 32.2188L174.579 31.5851L174.375 32.2188L173.609 36.375Z" fill="white"/>
</svg>
