<svg width="150" height="73" viewBox="0 0 150 73" fill="none" xmlns="http://www.w3.org/2000/svg">
<g clip-path="url(#clip0_3302_2250)">
<path d="M31.8083 0.447563C19.777 2.01196 9.48406 9.47752 4.42547 20.2501C0.421563 28.785 -0.183906 38.5872 2.72625 47.5974C4.48406 53.0629 7.58953 58.0531 11.8278 62.2117C14.9919 65.3207 17.6286 67.2019 21.4567 69.0435C31.3981 73.8555 43.4684 73.3011 53.0778 67.5583C61.7692 62.3701 67.902 53.8748 70.07 44.0527C71.4372 37.8545 71.1052 31.1019 69.113 24.9037C64.9333 11.7746 53.8786 2.36841 40.5583 0.605983C38.5466 0.328748 33.3513 0.249537 31.8083 0.447563ZM42.1794 3.35853C52.3747 5.4378 60.6169 11.8538 65.1286 21.2006C68.3317 27.8543 69.3473 36.1515 67.8239 43.1814C64.9333 56.4887 55.1481 66.3702 42.0036 69.2614C40.3044 69.6376 39.3864 69.697 35.9098 69.7168C31.3981 69.7168 29.6013 69.4594 25.8122 68.2118C17.6481 65.5385 10.2458 58.8254 6.51531 50.746C2.78484 42.6864 2.29656 33.498 5.14813 24.8443C7.82391 16.646 13.8005 9.83396 21.5934 6.07148C25.2848 4.26945 28.3513 3.35853 32.2966 2.88327C34.7966 2.58624 39.5231 2.80406 42.1794 3.35853Z" fill="currentColor"/>
<path d="M27.9018 16.9827C27.4721 17.8936 24.9526 23.2601 22.2768 28.9236C19.601 34.5871 17.3744 39.3397 17.3158 39.4585C17.2377 39.6565 19.0737 39.7159 26.1244 39.7159H35.0307V27.5374V15.3588H31.8471H28.644L27.9018 16.9827ZM32.4916 27.5374V37.1218L26.8276 37.1812C23.7026 37.2208 21.1635 37.1812 21.1635 37.1218C21.1635 37.0624 22.3549 34.4683 23.8002 31.3791C25.2651 28.2899 27.2572 23.9927 28.2533 21.8541L30.0502 17.9332H31.2807H32.4916V27.5374Z" fill="currentColor"/>
<path d="M37.7656 19.2204V23.0819H40.5586C44.7383 23.0819 46.6914 23.8145 49.2109 26.3691C50.7539 27.9137 51.9453 30.0721 52.5508 32.389C53.0195 34.1911 53.0195 38.5476 52.5312 40.31C51.6133 43.7359 49.2304 46.825 46.5351 48.132C44.6015 49.0627 42.8242 49.4192 40.0703 49.4192H37.7656V50.6073V51.7955H40.5586C45.3633 51.7955 47.9023 50.8252 50.8711 47.835C52.1992 46.4884 52.7265 45.7953 53.4492 44.3695C54.7578 41.7556 55.168 40.112 55.2851 37.0228C55.3633 35.0426 55.3242 34.0524 55.0508 32.7653C54.0351 27.6166 51.164 23.7155 46.9062 21.6957C45.4414 21.0026 43.1562 20.5075 41.3594 20.5075H40.1094V19.1016V17.6758L42.6094 17.7946C46.164 17.9728 48.0781 18.5867 50.8515 20.5075C55.8125 23.9334 58.8203 31.2207 58.0781 38.0129C57.2383 45.7161 52.9219 51.8351 46.9062 53.8945C44.914 54.5876 43.3515 54.746 38.8984 54.7658H35.0312V48.6271V42.4883H25.5195H15.9883L14.0742 46.7656C13.039 49.1221 12.1406 51.241 12.082 51.4588C11.9648 51.9341 12.8047 53.1618 14.7773 55.4193C15.8125 56.6075 17.375 57.9144 17.5312 57.7164C17.5898 57.6372 20.2851 51.6569 22.3945 46.9043L23.2148 45.0824L27.8633 45.0626H32.4922V51.1222V57.1619L38.8984 57.1025C46.1836 57.0035 46.3789 56.9639 49.582 55.3599C56.8867 51.6965 61.2812 42.9834 60.4219 33.8742C60.0703 30.0721 58.8398 26.4087 56.9648 23.5373C55.1484 20.7452 51.8086 17.8936 48.8008 16.5866C46.5351 15.5965 45.0312 15.3589 41.2031 15.3589H37.7656V19.2204ZM20.3047 45.6963C18.8984 48.9241 16.6523 53.8747 16.5742 53.8747C16.5351 53.8747 16.0469 53.3401 15.5195 52.7064L14.5429 51.538L14.9922 50.6271C15.6758 49.241 17.2578 45.5181 17.2578 45.2805C17.2578 45.1418 17.8828 45.0626 18.9179 45.0626H20.5781L20.3047 45.6963Z" fill="currentColor"/>
<path d="M89.7578 14.7053C89.2109 16.2103 87.3945 21.1213 85.7539 25.5967L82.7461 33.7751H84.7188H86.6914L87.5703 31.2998L88.4492 28.8245L93.0195 28.8641L97.5703 28.9235L98.4688 31.3394L99.3477 33.7751H101.281C103.195 33.7751 103.215 33.7751 103.078 33.3197C103.02 33.0821 102.297 31.1414 101.496 29.0225C100.695 26.9037 99.4258 23.5571 98.6836 21.5966C97.9609 19.6362 96.8281 16.6856 96.2031 15.0618L95.0703 12.0914L92.9219 12.032L90.7734 11.9726L89.7578 14.7053ZM95.832 23.7155L96.5352 25.6561H93.0391C91.1055 25.6561 89.5234 25.6165 89.5234 25.5769C89.5234 25.4977 91.4961 19.5768 92.4727 16.7648L92.9023 15.4974L94.0156 18.646C94.6406 20.3689 95.4609 22.6659 95.832 23.7155Z" fill="currentColor"/>
<path d="M108.664 22.8838V33.7751H115.695H122.727V32.1909V30.6067H117.551H112.375V21.2996V11.9924H110.52H108.664V22.8838Z" fill="currentColor"/>
<path d="M128.781 22.8838V33.7751H130.637H132.492V22.8838V11.9924H130.637H128.781V22.8838Z" fill="currentColor"/>
<path d="M83.0781 53.1816V64.073H87.8438C91.3594 64.073 93 63.9938 94.0352 63.776C98.2148 62.8848 100.949 60.0729 101.73 55.8352C102.98 49.3003 99.543 43.6368 93.7031 42.5873C92.668 42.3892 90.6563 42.31 87.6289 42.2902H83.0781V53.1816ZM92.2773 45.6567C94.6797 46.1121 96.3789 47.4191 97.4141 49.6172C97.9805 50.8251 98.0195 51.0627 98.0195 53.0826C98.0195 55.5579 97.8047 56.5084 96.8867 57.855C95.4023 60.1125 93.8789 60.7066 89.6797 60.7066H86.7891V53.0826V45.4586H89.0156C90.2266 45.4586 91.7109 45.5576 92.2773 45.6567Z" fill="currentColor"/>
<path d="M108.273 53.1816V64.073H115.5H122.727V62.3898V60.7066H117.355H111.984V57.6372V54.5678H116.965H121.945V52.9836V51.3994H116.965H111.984V48.429V45.4586H117.336H122.688L122.766 43.9536C122.805 43.1219 122.785 42.409 122.746 42.3694C122.707 42.3298 119.426 42.2902 115.461 42.2902H108.273V53.1816Z" fill="currentColor"/>
<path d="M128.391 42.3694C128.391 42.4288 129.582 45.5774 131.047 49.3597C132.492 53.142 134.348 58.0134 135.168 60.1521L136.652 64.073H139.016H141.398L143.469 58.5679C145.754 52.5677 149.445 42.9239 149.621 42.5279C149.699 42.3496 149.25 42.2902 147.688 42.2902H145.676L145.148 43.716C143.957 47.023 139.758 58.8847 139.523 59.6174C139.387 60.0531 139.23 60.4689 139.152 60.5482C139.094 60.6274 138.605 59.5184 138.098 58.0728C137.59 56.6273 136.086 52.5083 134.777 48.9241L132.375 42.3892L130.383 42.3298C129.289 42.31 128.391 42.3298 128.391 42.3694Z" fill="currentColor"/>
</g>
<defs>
<clipPath id="clip0_3302_2250">
<rect width="150" height="73" fill="white"/>
</clipPath>
</defs>
</svg>
