<svg width="25" height="24" viewBox="0 0 25 24" fill="none" xmlns="http://www.w3.org/2000/svg">
<g clip-path="url(#clip0_425_430)">
<path d="M12.4985 0C5.873 0 0.5 5.394 0.5 12.048C0.5 17.37 3.938 21.885 8.708 23.4795C9.308 23.5905 9.527 23.2185 9.527 22.899C9.527 22.6125 9.5165 21.855 9.5105 20.85C6.173 21.5775 5.468 19.2345 5.468 19.2345C4.9235 17.8425 4.136 17.472 4.136 17.472C3.0455 16.725 4.217 16.74 4.217 16.74C5.4215 16.8255 6.0545 17.982 6.0545 17.982C7.1255 19.8225 8.864 19.2915 9.548 18.9825C9.656 18.204 9.9665 17.673 10.31 17.3715C7.646 17.067 4.844 16.0335 4.844 11.418C4.844 10.1025 5.312 9.027 6.08 8.184C5.9555 7.8795 5.5445 6.654 6.197 4.9965C6.197 4.9965 7.205 4.6725 9.497 6.231C10.454 5.964 11.48 5.8305 12.5015 5.826C13.52 5.832 14.5475 5.964 15.506 6.2325C17.7965 4.674 18.803 4.998 18.803 4.998C19.457 6.657 19.046 7.881 18.923 8.1855C19.6925 9.0285 20.156 10.104 20.156 11.4195C20.156 16.047 17.351 17.0655 14.678 17.364C15.1085 17.736 15.4925 18.471 15.4925 19.5945C15.4925 21.2055 15.4775 22.5045 15.4775 22.899C15.4775 23.2215 15.6935 23.5965 16.3025 23.478C21.065 21.882 24.5 17.3685 24.5 12.048C24.5 5.394 19.127 0 12.4985 0Z" fill="white"/>
</g>
<defs>
<clipPath id="clip0_425_430">
<rect width="24" height="24" fill="white" transform="translate(0.5)"/>
</clipPath>
</defs>
</svg>
