<svg width="25" height="24" viewBox="0 0 25 24" fill="none" xmlns="http://www.w3.org/2000/svg">
<g clip-path="url(#clip0_425_427)">
<path d="M1.99971 1.63249C0.113711 3.59112 0.499711 5.67173 0.499711 11.9926C0.499711 17.2416 -0.416289 22.5036 4.37771 23.7424C5.87471 24.1273 19.1387 24.1273 20.6337 23.7404C22.6297 23.2255 24.2537 21.6068 24.4757 18.7843C24.5067 18.3904 24.5067 5.60175 24.4747 5.19982C24.2387 2.19338 22.3877 0.460709 19.9487 0.109775C19.3897 0.0287897 19.2777 0.00479414 16.4097 -0.000204924C6.23671 0.00479414 4.00671 -0.448121 1.99971 1.63249Z" fill="url(#paint0_linear_425_427)"/>
<path d="M12.4978 3.13892C8.86681 3.13892 5.41881 2.81592 4.10181 6.19592C3.55781 7.59192 3.63681 9.40492 3.63681 12.0009C3.63681 14.2789 3.56381 16.4199 4.10181 17.8049C5.41581 21.1869 8.89181 20.8629 12.4958 20.8629C15.9728 20.8629 19.5578 21.2249 20.8908 17.8049C21.4358 16.3949 21.3558 14.6089 21.3558 12.0009C21.3558 8.53892 21.5468 6.30392 19.8678 4.62592C18.1678 2.92592 15.8688 3.13892 12.4938 3.13892H12.4978ZM11.7038 4.73592C19.2778 4.72392 20.2418 3.88192 19.7098 15.5789C19.5208 19.7159 16.3708 19.2619 12.4988 19.2619C5.43881 19.2619 5.23581 19.0599 5.23581 11.9969C5.23581 4.85192 5.79581 4.73992 11.7038 4.73392V4.73592ZM17.2278 6.20692C16.6408 6.20692 16.1648 6.68292 16.1648 7.26992C16.1648 7.85692 16.6408 8.33292 17.2278 8.33292C17.8148 8.33292 18.2908 7.85692 18.2908 7.26992C18.2908 6.68292 17.8148 6.20692 17.2278 6.20692ZM12.4978 7.44992C9.98481 7.44992 7.94781 9.48792 7.94781 12.0009C7.94781 14.5139 9.98481 16.5509 12.4978 16.5509C15.0108 16.5509 17.0468 14.5139 17.0468 12.0009C17.0468 9.48792 15.0108 7.44992 12.4978 7.44992ZM12.4978 9.04692C16.4028 9.04692 16.4078 14.9549 12.4978 14.9549C8.59381 14.9549 8.58781 9.04692 12.4978 9.04692Z" fill="white"/>
</g>
<defs>
<linearGradient id="paint0_linear_425_427" x1="2.04573" y1="22.4627" x2="24.3476" y2="3.15705" gradientUnits="userSpaceOnUse">
<stop stop-color="#FFDD55"/>
<stop offset="0.5" stop-color="#FF543E"/>
<stop offset="1" stop-color="#C837AB"/>
</linearGradient>
<clipPath id="clip0_425_427">
<rect width="24" height="24" fill="white" transform="translate(0.5)"/>
</clipPath>
</defs>
</svg>
