<svg width="25" height="24" viewBox="0 0 25 24" fill="none" xmlns="http://www.w3.org/2000/svg">
<g clip-path="url(#clip0_425_422)">
<path fill-rule="evenodd" clip-rule="evenodd" d="M0.5 2.882C0.5 1.291 1.791 0 3.382 0C4.972 0 6.263 1.291 6.264 2.882C6.264 4.473 4.973 5.791 3.382 5.791C1.791 5.791 0.5 4.473 0.5 2.882ZM24.4941 24V23.9991H24.5001V15.197C24.5001 10.891 23.5731 7.57405 18.5391 7.57405C16.1191 7.57405 14.4951 8.90205 13.8321 10.161H13.7621V7.97605H8.98906V23.9991H13.9591V16.0651C13.9591 13.976 14.3551 11.956 16.9421 11.956C19.4911 11.956 19.5291 14.34 19.5291 16.199V24H24.4941ZM0.896094 7.97695H5.87209V24H0.896094V7.97695Z" fill="#0077B5"/>
</g>
<defs>
<clipPath id="clip0_425_422">
<rect width="24" height="24" fill="white" transform="translate(0.5)"/>
</clipPath>
</defs>
</svg>
