<svg width="31" height="30" viewBox="0 0 31 30" fill="none" xmlns="http://www.w3.org/2000/svg">
<path fill-rule="evenodd" clip-rule="evenodd" d="M15.5004 14.823L3.50488 8.826C3.54929 8.06167 3.88425 7.34323 4.44115 6.81784C4.99805 6.29245 5.73476 5.99986 6.50038 6H24.5004C25.266 5.99986 26.0027 6.29245 26.5596 6.81784C27.1165 7.34323 27.4515 8.06167 27.4959 8.826L15.5004 14.823ZM15.5 18.1769L27.5 12.1769V20.9999C27.5 21.7956 27.1839 22.5586 26.6213 23.1212C26.0587 23.6838 25.2956 23.9999 24.5 23.9999H6.5C5.70435 23.9999 4.94129 23.6838 4.37868 23.1212C3.81607 22.5586 3.5 21.7956 3.5 20.9999V12.1769L15.5 18.1769Z" fill="white"/>
</svg>
